<svg width="26" height="26" viewBox="0 0 26 26" fill="none" xmlns="http://www.w3.org/2000/svg">
<path fill-rule="evenodd" clip-rule="evenodd" d="M24.5413 0.458955C24.6868 0.604071 24.8022 0.776461 24.881 0.966254C24.9597 1.15605 25.0002 1.35951 25.0002 1.56499C25.0002 1.77048 24.9597 1.97394 24.881 2.16374C24.8022 2.35353 24.6868 2.52592 24.5413 2.67103L2.67046 24.5419C2.37712 24.8352 1.97926 25 1.56442 25C1.14957 25 0.75172 24.8352 0.45838 24.5419C0.16504 24.2485 0.000244144 23.8507 0.000244141 23.4358C0.000244138 23.021 0.16504 22.6231 0.45838 22.3298L22.3292 0.458955C22.4743 0.313473 22.6467 0.198048 22.8365 0.119293C23.0263 0.040538 23.2298 0 23.4352 0C23.6407 0 23.8442 0.040538 24.034 0.119293C24.2238 0.198048 24.3962 0.313473 24.5413 0.458955V0.458955Z" fill="white"/>
<path fill-rule="evenodd" clip-rule="evenodd" d="M0.459043 0.459043C0.313533 0.604186 0.198086 0.776609 0.119316 0.966438C0.0405457 1.15627 0 1.35977 0 1.56529C0 1.77082 0.0405457 1.97432 0.119316 2.16415C0.198086 2.35398 0.313533 2.5264 0.459043 2.67154L22.334 24.5465C22.6274 24.8399 23.0254 25.0048 23.4403 25.0048C23.8552 25.0048 24.2531 24.8399 24.5465 24.5465C24.8399 24.2531 25.0048 23.8552 25.0048 23.4403C25.0048 23.0254 24.8399 22.6274 24.5465 22.334L2.67154 0.459043C2.5264 0.313533 2.35398 0.198086 2.16415 0.119316C1.97432 0.0405457 1.77082 0 1.56529 0C1.35977 0 1.15627 0.0405457 0.966438 0.119316C0.776609 0.198086 0.604186 0.313533 0.459043 0.459043Z" fill="white"/>
</svg>
